<?xml version="1.0" standalone="no"?>
<!DOCTYPE svg PUBLIC "-//W3C//DTD SVG 20010904//EN"
 "http://www.w3.org/TR/2001/REC-SVG-20010904/DTD/svg10.dtd">
<svg version="1.0" xmlns="http://www.w3.org/2000/svg"
 width="291.000000pt" height="115.000000pt" viewBox="0 0 291.000000 115.000000"
 preserveAspectRatio="xMidYMid meet">
<metadata>
Created by potrace 1.16, written by Peter Selinger 2001-2019
</metadata>
<g transform="translate(0.000000,115.000000) scale(0.100000,-0.100000)"
fill="#000000" stroke="none">
<path d="M480 772 c1 -33 6 -40 44 -63 75 -46 105 -143 71 -227 -20 -46 -48
-77 -86 -92 -25 -11 -29 -18 -29 -52 0 -42 0 -42 66 -17 40 14 97 73 120 124
67 144 -8 312 -158 356 -27 7 -28 6 -28 -29z"/>
<path d="M988 796 c-31 -7 -64 -18 -75 -26 -77 -59 -111 -112 -120 -191 l-6
-49 47 0 c46 0 46 0 46 33 0 54 40 118 90 144 36 19 59 23 132 23 l88 0 0 40
0 40 -72 -1 c-40 0 -98 -6 -130 -13z"/>
<path d="M1547 799 c-54 -13 -88 -33 -130 -75 -113 -117 -77 -318 70 -390 48
-24 73 -29 155 -32 l98 -4 0 41 0 41 -87 0 c-73 0 -95 4 -128 23 -116 65 -113
245 5 305 35 17 61 22 127 22 l83 0 0 40 0 40 -77 -1 c-43 -1 -95 -5 -116 -10z"/>
<path d="M2060 804 c0 -9 77 -225 132 -371 l50 -133 45 0 c32 0 44 4 41 13 -3
6 -45 121 -93 255 l-89 242 -43 0 c-24 0 -43 -3 -43 -6z"/>
<path d="M2430 771 l0 -41 125 0 c141 0 177 -11 192 -57 13 -39 3 -72 -30 -97
-25 -18 -45 -21 -158 -24 l-129 -4 0 -124 0 -124 40 0 40 0 0 90 0 90 59 0 59
0 64 -90 63 -90 48 0 c36 0 46 3 41 13 -8 13 -65 95 -101 143 l-23 31 44 28
c56 35 81 86 73 151 -6 57 -31 93 -83 119 -32 16 -65 20 -181 23 l-143 4 0
-41z"/>
<path d="M323 779 c-82 -40 -133 -126 -133 -224 0 -119 70 -214 182 -246 27
-7 28 -6 28 30 0 33 -4 39 -35 54 -19 9 -47 35 -62 58 -58 88 -27 221 61 263
31 15 36 22 36 51 0 42 -15 45 -77 14z"/>
<path d="M1931 505 c-40 -97 -75 -183 -78 -191 -4 -11 5 -14 39 -14 l44 0 56
136 55 136 -19 52 c-11 28 -21 52 -23 54 -1 1 -35 -76 -74 -173z"/>
<path d="M1097 518 c-6 -45 -28 -81 -71 -112 -23 -17 -45 -22 -132 -24 l-104
-4 0 -39 0 -39 88 0 c103 0 141 9 204 49 55 35 98 104 106 167 l5 44 -45 0
-45 0 -6 -42z"/>
</g>
</svg>
