<?xml version="1.0" standalone="no"?>
<!DOCTYPE svg PUBLIC "-//W3C//DTD SVG 20010904//EN"
 "http://www.w3.org/TR/2001/REC-SVG-20010904/DTD/svg10.dtd">
<svg version="1.0" xmlns="http://www.w3.org/2000/svg"
 width="116.000000pt" height="115.000000pt" viewBox="0 0 116.000000 115.000000"
 preserveAspectRatio="xMidYMid meet">
<metadata>
Created by potrace 1.16, written by Peter Selinger 2001-2019
</metadata>
<g transform="translate(0.000000,115.000000) scale(0.100000,-0.100000)"
fill="#000000" stroke="none">
<path d="M535 1094 c-11 -2 -45 -9 -75 -15 -82 -16 -180 -72 -250 -142 -270
-270 -170 -733 186 -867 199 -74 414 -29 561 117 90 89 135 182 153 314 14
105 0 192 -49 294 -65 135 -163 224 -300 271 -64 22 -186 37 -226 28z m180
-56 c116 -29 249 -137 304 -247 62 -122 73 -241 33 -371 l-16 -55 -7 140 c-9
179 -38 280 -71 247 -7 -7 -5 -25 7 -59 13 -35 18 -94 22 -225 5 -170 5 -177
-16 -207 -12 -17 -27 -31 -32 -31 -5 0 -9 83 -9 200 0 180 -2 205 -22 257 -25
69 -97 149 -162 182 -88 43 -236 53 -236 16 0 -8 3 -15 8 -15 158 -7 208 -23
280 -93 84 -81 87 -91 90 -355 3 -210 2 -236 -14 -253 -9 -10 -21 -19 -26 -19
-4 0 -8 102 -8 228 0 219 -5 262 -29 248 -8 -5 -11 -84 -11 -255 l0 -248 -24
-11 -25 -11 -3 252 c-3 231 -5 255 -23 286 -29 49 -67 73 -123 79 -54 5 -122
-19 -122 -44 0 -22 18 -26 49 -9 42 21 82 19 122 -8 53 -35 58 -64 58 -328 1
-207 -1 -238 -15 -243 -42 -16 -44 -11 -44 108 0 63 -4 117 -9 120 -20 13 -30
-27 -33 -130 -3 -101 -4 -109 -23 -109 -19 0 -20 8 -23 249 -2 253 0 272 34
259 9 -3 14 -33 16 -96 3 -78 6 -92 21 -95 15 -3 17 7 17 97 0 88 -3 104 -20
121 -26 26 -51 25 -84 -1 l-26 -20 0 -255 c0 -147 -4 -254 -9 -254 -41 0 -41
1 -41 271 0 252 -1 259 -20 259 -19 0 -20 -7 -20 -250 0 -264 0 -261 -44 -244
-14 5 -16 28 -16 151 0 132 -1 144 -17 141 -16 -3 -19 -20 -23 -132 l-5 -128
-23 18 -23 19 3 230 c3 221 4 232 28 278 22 45 92 118 135 143 12 7 16 16 12
28 -16 42 -142 -66 -189 -162 -21 -44 -23 -62 -26 -259 -2 -117 -6 -213 -10
-212 -4 0 -18 14 -31 30 -23 30 -24 33 -19 202 5 145 9 181 28 230 12 32 19
64 16 72 -10 27 -32 4 -55 -58 -18 -49 -24 -92 -28 -202 l-6 -140 -19 55 c-28
80 -27 209 2 295 83 248 338 387 595 323z"/>
<path d="M449 981 c-62 -20 -127 -62 -177 -113 -28 -30 -31 -37 -18 -47 11
-10 25 -2 71 38 138 121 330 134 482 34 29 -19 64 -48 77 -64 25 -29 56 -39
56 -17 0 22 -52 79 -103 113 -106 72 -266 95 -388 56z"/>
<path d="M533 809 c-91 -17 -172 -97 -193 -192 -16 -71 -10 -162 10 -162 12 0
16 18 21 80 6 85 29 144 71 181 87 80 227 73 301 -16 27 -31 57 -40 57 -16 0
26 -50 75 -103 100 -61 29 -107 36 -164 25z"/>
</g>
</svg>
